<svg xmlns="http://www.w3.org/2000/svg" width="34" height="33" viewBox="0 0 33.8907 32.3308" fill="none">
  <path d="M15.9943 0.690983C16.2937 -0.230328 17.5971 -0.230328 17.8964 0.690983L21.2111 10.8926C21.345 11.3046 21.729 11.5836 22.1622 11.5836H32.8888C33.8575 11.5836 34.2603 12.8232 33.4766 13.3926L24.7986 19.6976C24.4481 19.9522 24.3014 20.4036 24.4353 20.8156L27.75 31.0172C28.0494 31.9385 26.9949 32.7047 26.2112 32.1353L17.5331 25.8303C17.1827 25.5757 16.7081 25.5757 16.3576 25.8303L7.67956 32.1353C6.89584 32.7047 5.84136 31.9385 6.14071 31.0172L9.45542 20.8156C9.5893 20.4036 9.44264 19.9522 9.09215 19.6976L0.414131 13.3926C-0.369582 12.8232 0.0331935 11.5836 1.00192 11.5836H11.7285C12.1618 11.5836 12.5457 11.3046 12.6796 10.8926L15.9943 0.690983Z" fill="#D9D9D9"/>
</svg>
