<svg width="24" height="24" viewBox="0 0 24 24" fill="none" xmlns="http://www.w3.org/2000/svg">
<path d="M6.48096 4.54492C6.99862 4.54509 7.52678 4.87221 7.94678 5.52539C8.36395 6.17432 8.63623 7.09744 8.63623 8.13867C8.63616 9.17974 8.36389 10.1021 7.94678 10.751C7.52676 11.4043 6.99865 11.7313 6.48096 11.7314C5.96311 11.7314 5.43429 11.4045 5.01416 10.751C4.59704 10.1021 4.32478 9.17974 4.32471 8.13867C4.32471 7.09744 4.59699 6.17432 5.01416 5.52539C5.43427 4.87199 5.96315 4.54492 6.48096 4.54492Z" stroke="#F59E0B" stroke-width="0.863267"/>
<path d="M17.406 4.54492C17.9237 4.54509 18.4518 4.87221 18.8718 5.52539C19.289 6.17432 19.5613 7.09744 19.5613 8.13867C19.5612 9.17974 19.2889 10.1021 18.8718 10.751C18.4518 11.4043 17.9237 11.7313 17.406 11.7314C16.8882 11.7314 16.3593 11.4045 15.9392 10.751C15.5221 10.1021 15.2498 9.17974 15.2498 8.13867C15.2498 7.09744 15.522 6.17432 15.9392 5.52539C16.3593 4.87199 16.8882 4.54492 17.406 4.54492Z" stroke="#F59E0B" stroke-width="0.863267"/>
<path d="M7.63037 2.96213H16.2554C16.7315 2.96234 17.1177 3.34919 17.1177 3.82541V8.13791C17.1175 10.9957 14.8006 13.3125 11.9429 13.3127C9.08493 13.3127 6.7673 10.9958 6.76709 8.13791V3.82541C6.76709 3.34906 7.15403 2.96213 7.63037 2.96213Z" fill="#F59E0B"/>
<path d="M7.63037 2.96213H16.2554C16.7315 2.96234 17.1177 3.34919 17.1177 3.82541V8.13791C17.1175 10.9957 14.8006 13.3125 11.9429 13.3127C9.08493 13.3127 6.7673 10.9958 6.76709 8.13791V3.82541C6.76709 3.34906 7.15403 2.96213 7.63037 2.96213Z" stroke="#B45309" stroke-width="0.575"/>
<rect opacity="0.25" x="7.91821" y="3.825" width="1.15" height="5.75" rx="0.575" fill="white"/>
<g filter="url(#filter0_d_2265_3486)">
<rect x="9.49829" y="5.69336" width="4.88827" height="4.88827" rx="2.44413" fill="white" shape-rendering="crispEdges"/>
<rect x="9.71372" y="5.90879" width="4.4574" height="4.4574" rx="2.2287" stroke="#B45309" stroke-width="0.430867" shape-rendering="crispEdges"/>
<path d="M11.8187 8.6375V7.43136H11.3683V7.12595H11.5702C11.6392 7.12595 11.6953 7.1156 11.7384 7.09489C11.7833 7.07246 11.8152 7.03795 11.8342 6.99136C11.8549 6.94304 11.8652 6.8792 11.8652 6.79983H12.1862V8.6375H11.8187ZM11.2906 8.6375V8.3062H12.5951V8.6375H11.2906Z" fill="#78350F"/>
</g>
<rect x="10.7058" y="13.5617" width="2.58827" height="3.45" rx="0.288267" fill="#B45309"/>
<rect x="8.26254" y="17.1558" width="7.475" height="1.15" rx="0.286733" fill="#F59E0B" stroke="#B45309" stroke-width="0.288267"/>
<rect x="6.39331" y="18.45" width="11.2133" height="2.875" rx="0.575" fill="#78350F"/>
<defs>
<filter id="filter0_d_2265_3486" x="8.92329" y="5.40663" width="6.03818" height="6.03826" filterUnits="userSpaceOnUse" color-interpolation-filters="sRGB">
<feFlood flood-opacity="0" result="BackgroundImageFix"/>
<feColorMatrix in="SourceAlpha" type="matrix" values="0 0 0 0 0 0 0 0 0 0 0 0 0 0 0 0 0 0 127 0" result="hardAlpha"/>
<feOffset dy="0.288267"/>
<feGaussianBlur stdDeviation="0.2875"/>
<feComposite in2="hardAlpha" operator="out"/>
<feColorMatrix type="matrix" values="0 0 0 0 0 0 0 0 0 0 0 0 0 0 0 0 0 0 0.14902 0"/>
<feBlend mode="normal" in2="BackgroundImageFix" result="effect1_dropShadow_2265_3486"/>
<feBlend mode="normal" in="SourceGraphic" in2="effect1_dropShadow_2265_3486" result="shape"/>
</filter>
</defs>
</svg>
